<svg width="656" height="270" viewBox="0 0 656 270" fill="none" xmlns="http://www.w3.org/2000/svg">
<title>TwitchListen</title>
<path d="M625.604 106.034C625.406 117.598 621.359 127.773 613.083 136.187C611.659 137.635 610.074 138.939 608.489 140.216C607.052 141.374 606.291 142.76 606.301 144.631C606.332 150.865 606.344 157.101 606.305 163.336C606.261 170.46 603.66 176.503 598.393 181.341C594.796 184.645 590.54 186.641 585.705 187.33C584.26 187.535 582.775 187.584 581.315 187.535C578.788 187.45 576.825 185.294 576.83 182.763C576.835 180.269 578.783 178.184 581.272 178.006C582.436 177.922 583.614 177.915 584.763 177.733C590.488 176.825 595.359 172.043 596.372 166.344C596.554 165.323 596.649 164.273 596.653 163.236C596.679 157.051 596.673 150.865 596.664 144.68C596.657 139.664 598.676 135.656 602.634 132.595C609.311 127.431 613.576 120.746 615.281 112.476C615.9 109.471 616.07 106.432 615.843 103.362C615.413 97.5407 613.636 92.1765 610.399 87.3248C606.043 80.7966 600.131 76.261 592.655 73.7893C588.517 72.4213 584.257 71.8967 579.922 72.2074C572.567 72.7342 566.057 75.4242 560.456 80.2028C554.212 85.5298 550.331 92.2502 548.912 100.339C548.634 101.923 548.51 103.544 548.452 105.153C548.366 107.533 546.294 109.91 543.308 109.739C541.024 109.608 538.991 107.736 538.891 105.456C538.828 103.999 538.922 102.524 539.079 101.072C539.604 96.192 540.881 91.5028 543.098 87.1192C549.298 74.8594 559.049 66.9564 572.434 63.6368C576.636 62.5943 580.924 62.3112 585.253 62.6293C595.882 63.411 605.013 67.5309 612.611 74.9562C619.169 81.3644 623.258 89.1162 624.899 98.1435C625.362 100.693 625.541 103.264 625.605 106.034H625.604Z" fill="#9146FF"/>
<path d="M582.214 81.7783C593.703 81.7589 603.662 89.9428 605.839 101.214C606.115 102.644 606.232 104.117 606.292 105.576C606.388 107.911 604.856 109.918 602.692 110.456C600.481 111.006 598.241 110.011 597.203 108.014C596.829 107.295 596.677 106.529 596.662 105.718C596.589 101.877 595.29 98.4963 592.563 95.7817C588.435 91.676 583.449 90.3235 577.896 92.0649C572.384 93.7937 569.076 97.7005 567.96 103.382C567.784 104.278 567.767 105.206 567.703 106.121C567.523 108.691 565.426 110.636 562.846 110.609C560.253 110.582 558.122 108.502 558.13 105.913C558.154 98.2325 561.203 91.9562 567.111 87.0814C570.649 84.162 574.762 82.5048 579.31 81.9243C579.853 81.855 580.399 81.8118 580.945 81.7827C581.367 81.7604 581.791 81.7783 582.214 81.7783V81.7783Z" fill="#9146FF"/>
<path d="M620.385 34.001C621.181 33.9839 622.027 34.3088 622.839 34.7752C627.205 37.2826 631.324 40.1417 635.166 43.3943C643.565 50.5029 650.241 58.9715 655.269 68.7455C655.934 70.0383 656.233 71.358 655.789 72.7633C655.166 74.7335 653.775 75.8944 651.745 76.1388C649.774 76.3765 648.205 75.5762 647.102 73.9123C646.979 73.7268 646.879 73.5256 646.777 73.3266C640.175 60.4156 630.578 50.3435 617.998 43.1029C616.306 42.1298 615.355 40.7237 615.349 38.7558C615.34 36.071 617.538 33.9466 620.384 34.001H620.385Z" fill="#9146FF"/>
<path d="M638.759 79.8955C638.761 82.1719 637.252 84.1048 635.135 84.6421C632.976 85.1897 630.771 84.2084 629.689 82.2397C628.9 80.8038 628.138 79.3486 627.275 77.9566C622.56 70.3465 616.281 64.3377 608.524 59.8661C607.101 59.0457 606.157 57.9079 605.921 56.2626C605.646 54.3446 606.303 52.7664 607.868 51.6457C609.435 50.5235 611.146 50.4274 612.879 51.2843C613.502 51.592 614.093 51.9653 614.687 52.3282C624.827 58.5211 632.612 66.898 638.057 77.444C638.474 78.251 638.772 79.0803 638.76 79.8962L638.759 79.8955Z" fill="#9146FF"/>
<path d="M582.165 115.411C579.512 115.399 577.393 113.273 577.393 110.622C577.393 107.946 579.568 105.781 582.227 105.809C584.874 105.837 587.006 107.976 587.013 110.611C587.021 113.272 584.847 115.423 582.164 115.412L582.165 115.411Z" fill="#9146FF"/>
<path d="M560.462 182.863L540.562 201.659H520.658L503.237 218.111V201.659H480.851V131.15H560.462V182.863Z" fill="white"/>
<path d="M545.54 148.34H535.585V176.54H545.54V148.34ZM518.18 148.219H508.225V176.432H518.18V148.219ZM475.873 121.742L451 145.243V229.857H480.849V253.357L505.725 229.857H525.633L570.413 187.55V121.742H475.873ZM560.461 182.858L540.561 201.655H520.657L503.236 218.106V201.655H480.849V131.145H560.461V182.858Z" fill="#9146FF"/>
<path d="M76.59 23.1V42.765H52.9V99H26.105V42.765H2.3V23.1H76.59ZM99.4229 99L77.9179 23.1H106.783L115.638 77.955L126.333 23.1H149.333L160.603 77.61L169.228 23.1H197.058L175.438 99H147.033L141.053 70.48L138.063 51.045H137.718L134.728 70.48L128.863 99H99.4229ZM228.854 23.1V99H202.059V23.1H228.854ZM311.194 23.1V42.765H287.504V99H260.709V42.765H236.904V23.1H311.194ZM387.011 75.77C385.631 81.6733 383.254 86.4267 379.881 90.03C376.584 93.6333 372.559 96.24 367.806 97.85C363.053 99.3833 357.763 100.15 351.936 100.15C343.963 100.15 337.063 98.6167 331.236 95.55C325.486 92.4833 321.039 88.0367 317.896 82.21C314.829 76.3833 313.296 69.33 313.296 61.05C313.296 52.77 314.829 45.7167 317.896 39.89C321.039 34.0633 325.486 29.6167 331.236 26.55C337.063 23.4833 343.963 21.95 351.936 21.95C357.533 21.95 362.746 22.755 367.576 24.365C372.406 25.8983 376.469 28.3517 379.766 31.725C383.139 35.0983 385.363 39.5067 386.436 44.95L363.436 53.92C362.823 48.9367 361.558 45.7167 359.641 44.26C357.801 42.8033 355.463 42.075 352.626 42.075C350.019 42.075 347.796 42.765 345.956 44.145C344.193 45.4483 342.851 47.5183 341.931 50.355C341.088 53.115 340.666 56.68 340.666 61.05C340.666 65.3433 341.049 68.9083 341.816 71.745C342.659 74.5817 344.001 76.69 345.841 78.07C347.681 79.3733 350.134 80.025 353.201 80.025C355.961 80.025 358.223 79.22 359.986 77.61C361.749 75.9233 362.861 73.2783 363.321 69.675L387.011 75.77ZM467.943 23.1V99H441.148V23.1H467.943ZM420.333 23.1V99H393.538V23.1H420.333ZM455.983 51.045V70.71H406.418V51.045H455.983Z" fill="#56CFE1"/>
<path d="M32.545 197.335H66.93V217H5.75V141.1H32.545V197.335ZM102.174 141.1V217H75.3789V141.1H102.174ZM146.91 139.95C154.193 139.95 160.71 140.87 166.46 142.71C172.286 144.473 177.423 147.157 181.87 150.76L171.06 168.01C167.456 165.48 163.661 163.448 159.675 161.915C155.765 160.382 151.51 159.615 146.91 159.615C144.916 159.615 143.306 159.768 142.08 160.075C140.93 160.382 140.086 160.803 139.55 161.34C139.09 161.877 138.86 162.49 138.86 163.18C138.86 164.1 139.55 164.79 140.93 165.25C142.386 165.71 144.188 166.208 146.335 166.745L156.8 169.16C164.543 170.923 170.37 173.53 174.28 176.98C178.266 180.43 180.26 185.222 180.26 191.355C180.26 197.488 178.765 202.548 175.775 206.535C172.785 210.445 168.721 213.358 163.585 215.275C158.525 217.192 152.775 218.15 146.335 218.15C141.505 218.15 136.675 217.728 131.845 216.885C127.015 215.965 122.53 214.662 118.39 212.975C114.25 211.212 110.685 209.103 107.695 206.65L118.275 189.055C120.498 190.818 123.181 192.428 126.325 193.885C129.468 195.265 132.726 196.377 136.1 197.22C139.473 198.063 142.616 198.485 145.53 198.485C147.37 198.485 148.826 198.332 149.9 198.025C150.973 197.718 151.701 197.335 152.085 196.875C152.545 196.338 152.775 195.725 152.775 195.035C152.775 193.962 152.315 193.157 151.395 192.62C150.551 192.083 148.98 191.547 146.68 191.01L135.18 188.48C131.116 187.56 127.245 186.333 123.565 184.8C119.885 183.267 116.895 181.043 114.595 178.13C112.295 175.14 111.145 171.115 111.145 166.055C111.145 160.842 112.525 156.28 115.285 152.37C118.121 148.46 122.185 145.432 127.475 143.285C132.841 141.062 139.32 139.95 146.91 139.95ZM259.085 141.1V160.765H235.395V217H208.6V160.765H184.795V141.1H259.085ZM267.083 217V141.1H330.103V160.765H293.878V170.195H323.088V188.365H293.878V197.335H331.483V217H267.083ZM413.36 141.1V217H384.38L366.21 182.5L362.07 173.185H361.84L362.3 188.825V217H339.07V141.1H368.05L386.22 175.715L390.36 184.915H390.59L390.13 169.275V141.1H413.36Z" fill="#E84393"/>
</svg>
